<svg width="32" height="32" viewBox="0 0 32 32" fill="none" xmlns="http://www.w3.org/2000/svg">
<rect x="0.5" y="0.5" width="31" height="31" rx="7.5" stroke="#2F2F37"/>
<path d="M16.6854 9.33395C17.1719 9.33208 17.6584 9.33697 18.1447 9.34862L18.2741 9.35328C18.4234 9.35862 18.5707 9.36528 18.7487 9.37328C19.4581 9.40662 19.9421 9.51862 20.3667 9.68328C20.8067 9.85262 21.1774 10.082 21.5481 10.4526C21.887 10.7857 22.1493 11.1886 22.3167 11.6333C22.4814 12.058 22.5934 12.5426 22.6267 13.2519C22.6347 13.4293 22.6414 13.5773 22.6467 13.7266L22.6507 13.8559C22.6626 14.3421 22.6677 14.8283 22.6661 15.3146L22.6667 15.812V16.6853C22.6684 17.1718 22.6633 17.6583 22.6514 18.1446L22.6474 18.2739C22.6421 18.4233 22.6354 18.5706 22.6274 18.7486C22.5941 19.4579 22.4807 19.9419 22.3167 20.3666C22.1498 20.8118 21.8875 21.215 21.5481 21.5479C21.2147 21.8868 20.8116 22.1491 20.3667 22.3166C19.9421 22.4813 19.4581 22.5933 18.7487 22.6266C18.5707 22.6346 18.4234 22.6413 18.2741 22.6466L18.1447 22.6506C17.6584 22.6625 17.1719 22.6676 16.6854 22.6659L16.1881 22.6666H15.3154C14.8289 22.6683 14.3424 22.6631 13.8561 22.6513L13.7267 22.6473C13.5685 22.6415 13.4102 22.6349 13.2521 22.6273C12.5427 22.5939 12.0587 22.4806 11.6334 22.3166C11.1885 22.1495 10.7856 21.8872 10.4527 21.5479C10.1134 21.2148 9.85088 20.8117 9.68339 20.3666C9.51873 19.9419 9.40673 19.4579 9.37339 18.7486C9.36597 18.5904 9.3593 18.4322 9.35339 18.2739L9.35006 18.1446C9.33777 17.6583 9.33221 17.1718 9.33339 16.6853V15.3146C9.33153 14.8284 9.33642 14.3421 9.34806 13.8559L9.35273 13.7266C9.35806 13.5773 9.36473 13.4293 9.37273 13.2519C9.40606 12.5419 9.51806 12.0586 9.68273 11.6333C9.85031 11.1884 10.1134 10.7856 10.4534 10.4533C10.786 10.1138 11.1887 9.851 11.6334 9.68328C12.0587 9.51862 12.5421 9.40662 13.2521 9.37328L13.7267 9.35328L13.8561 9.34995C14.3422 9.33767 14.8285 9.33211 15.3147 9.33328L16.6854 9.33395ZM16.0001 12.6673C15.5584 12.661 15.1199 12.7426 14.71 12.9073C14.3002 13.072 13.9272 13.3165 13.6126 13.6267C13.2981 13.9368 13.0483 14.3063 12.8779 14.7138C12.7074 15.1213 12.6196 15.5586 12.6196 16.0003C12.6196 16.442 12.7074 16.8793 12.8779 17.2868C13.0483 17.6943 13.2981 18.0638 13.6126 18.3739C13.9272 18.684 14.3002 18.9285 14.71 19.0932C15.1199 19.2579 15.5584 19.3395 16.0001 19.3333C16.8841 19.3333 17.732 18.9821 18.3571 18.357C18.9822 17.7319 19.3334 16.884 19.3334 15.9999C19.3334 15.1159 18.9822 14.268 18.3571 13.6429C17.732 13.0178 16.8841 12.6673 16.0001 12.6673ZM16.0001 14.0006C16.2657 13.9957 16.5297 14.0438 16.7766 14.1421C17.0235 14.2404 17.2483 14.3868 17.4379 14.573C17.6275 14.7591 17.7782 14.9812 17.881 15.2262C17.9839 15.4712 18.0369 15.7342 18.0369 15.9999C18.0369 16.2657 17.984 16.5287 17.8813 16.7738C17.7785 17.0188 17.628 17.2409 17.4384 17.4271C17.2488 17.6133 17.0241 17.7599 16.7772 17.8582C16.5304 17.9566 16.2664 18.0048 16.0007 17.9999C15.4703 17.9999 14.9616 17.7892 14.5865 17.4142C14.2114 17.0391 14.0007 16.5304 14.0007 15.9999C14.0007 15.4695 14.2114 14.9608 14.5865 14.5857C14.9616 14.2107 15.4703 13.9999 16.0007 13.9999L16.0001 14.0006ZM19.5001 11.6673C19.285 11.6759 19.0816 11.7674 18.9325 11.9226C18.7833 12.0778 18.7001 12.2847 18.7001 12.4999C18.7001 12.7152 18.7833 12.9221 18.9325 13.0773C19.0816 13.2325 19.285 13.324 19.5001 13.3326C19.7211 13.3326 19.933 13.2448 20.0893 13.0885C20.2456 12.9323 20.3334 12.7203 20.3334 12.4993C20.3334 12.2783 20.2456 12.0663 20.0893 11.91C19.933 11.7537 19.7211 11.666 19.5001 11.666V11.6673Z" fill="#2F2F37"/>
</svg>
