<svg width="32" height="32" viewBox="0 0 32 32" fill="none" xmlns="http://www.w3.org/2000/svg">
<rect x="0.5" y="0.5" width="31" height="31" rx="7.5" stroke="#2F2F37"/>
<path d="M16.1626 10.6666C16.5186 10.6686 17.4093 10.6773 18.3559 10.7153L18.6919 10.73C19.6446 10.7746 20.5966 10.852 21.0693 10.9833C21.6993 11.1606 22.1939 11.6766 22.3613 12.3313C22.6279 13.3713 22.6613 15.3993 22.6653 15.8906L22.6659 15.992V16.108C22.6613 16.5993 22.6279 18.628 22.3613 19.6673C22.1919 20.324 21.6966 20.8406 21.0693 21.0153C20.5966 21.1466 19.6446 21.224 18.6919 21.2686L18.3559 21.284C17.4093 21.3213 16.5186 21.3306 16.1626 21.332L16.0059 21.3326H15.8359C15.0826 21.328 11.9319 21.294 10.9293 21.0153C10.2999 20.838 9.80459 20.322 9.63725 19.6673C9.37059 18.6273 9.33725 16.5993 9.33325 16.108V15.8906C9.33725 15.3993 9.37059 13.3706 9.63725 12.3313C9.80659 11.6746 10.3019 11.158 10.9299 10.984C11.9319 10.7046 15.0833 10.6706 15.8366 10.6666H16.1626ZM14.6659 13.6666V18.3333L18.6659 16L14.6659 13.6666Z" fill="#2F2F37"/>
</svg>
